<svg width="16" height="14" viewBox="0 0 16 14" fill="none" xmlns="http://www.w3.org/2000/svg">
<path fill-rule="evenodd" clip-rule="evenodd" d="M2.4 1.87183C2.04421 1.87183 1.75 2.16604 1.75 2.52183V10.9218C1.75 11.2776 2.04421 11.5718 2.4 11.5718H13.6C13.9558 11.5718 14.25 11.2776 14.25 10.9218V2.52183C14.25 2.16604 13.9558 1.87183 13.6 1.87183H2.4ZM0.25 2.52183C0.25 1.33761 1.21579 0.371826 2.4 0.371826H13.6C14.7842 0.371826 15.75 1.33761 15.75 2.52183V10.9218C15.75 12.106 14.7842 13.0718 13.6 13.0718H2.4C1.21579 13.0718 0.25 12.106 0.25 10.9218V2.52183Z" fill="white"/>
<path fill-rule="evenodd" clip-rule="evenodd" d="M0.385576 2.09206C0.623111 1.75273 1.09076 1.6702 1.4301 1.90774L8 6.50667L14.5699 1.90774C14.9092 1.6702 15.3769 1.75273 15.6144 2.09206C15.852 2.4314 15.7694 2.89905 15.4301 3.13658L8.4301 8.03658C8.17186 8.21735 7.82814 8.21735 7.5699 8.03658L0.569903 3.13658C0.230566 2.89905 0.14804 2.4314 0.385576 2.09206Z" fill="white"/>
</svg>
