<svg width="14" height="15" viewBox="0 0 14 15" fill="none" xmlns="http://www.w3.org/2000/svg">
<path fill-rule="evenodd" clip-rule="evenodd" d="M4.00001 2.47144C2.75737 2.47144 1.75001 3.47879 1.75001 4.72144V10.7214C1.75001 11.9641 2.75737 12.9714 4.00001 12.9714H10C11.2427 12.9714 12.25 11.9641 12.25 10.7214V4.72144C12.25 3.47879 11.2427 2.47144 10 2.47144H4.00001ZM0.250013 4.72144C0.250013 2.65037 1.92895 0.971436 4.00001 0.971436H10C12.0711 0.971436 13.75 2.65037 13.75 4.72144V10.7214C13.75 12.7925 12.0711 14.4714 10 14.4714H4.00001C1.92895 14.4714 0.250013 12.7925 0.250013 10.7214V4.72144Z" fill="white"/>
<path fill-rule="evenodd" clip-rule="evenodd" d="M7.26802 6.0635C6.92472 6.0126 6.57411 6.07124 6.26605 6.23108C5.958 6.39092 5.70819 6.64383 5.55215 6.95383C5.39612 7.26384 5.34181 7.61515 5.39695 7.95779C5.45208 8.30044 5.61386 8.61698 5.85927 8.86238C6.10467 9.10779 6.42121 9.26957 6.76386 9.3247C7.1065 9.37984 7.45781 9.32553 7.76782 9.16949C8.07782 9.01346 8.33073 8.76365 8.49057 8.4556C8.65041 8.14754 8.70905 7.79693 8.65814 7.45363C8.60622 7.10345 8.44304 6.77925 8.19272 6.52893C7.9424 6.27861 7.6182 6.11543 7.26802 6.0635ZM5.5752 4.89964C6.1633 4.59449 6.83265 4.48254 7.48805 4.57973C8.15657 4.67886 8.77549 4.99038 9.25338 5.46827C9.73127 5.94616 10.0428 6.56508 10.1419 7.2336C10.2391 7.889 10.1272 8.55835 9.82201 9.14645C9.51685 9.73456 9.03402 10.2115 8.4422 10.5093C7.85038 10.8072 7.1797 10.9109 6.52555 10.8057C5.87141 10.7004 5.26711 10.3915 4.79861 9.92304C4.33011 9.45454 4.02126 8.85024 3.916 8.1961C3.81074 7.54195 3.91442 6.87127 4.2123 6.27945C4.51018 5.68763 4.98709 5.2048 5.5752 4.89964Z" fill="white"/>
</svg>
